<?xml version="1.0" encoding="UTF-8" standalone="no"?>
<!-- Created with Inkscape (http://www.inkscape.org/) -->

<svg
   width="76.506859mm"
   height="77.059799mm"
   viewBox="0 0 76.506859 77.059799"
   version="1.1"
   id="svg1"
   xml:space="preserve"
   inkscape:version="1.4.2 (f4327f4, 2025-05-13)"
   sodipodi:docname="VECTORIZADO.svg"
   inkscape:export-filename="VECTORIZADO.png"
   inkscape:export-xdpi="4000"
   inkscape:export-ydpi="4000"
   xmlns:inkscape="http://www.inkscape.org/namespaces/inkscape"
   xmlns:sodipodi="http://sodipodi.sourceforge.net/DTD/sodipodi-0.dtd"
   xmlns:xlink="http://www.w3.org/1999/xlink"
   xmlns="http://www.w3.org/2000/svg"
   xmlns:svg="http://www.w3.org/2000/svg"><sodipodi:namedview
     id="namedview1"
     pagecolor="#000000"
     bordercolor="#999999"
     borderopacity="1"
     inkscape:showpageshadow="2"
     inkscape:pageopacity="0"
     inkscape:pagecheckerboard="0"
     inkscape:deskcolor="#f5eeee"
     inkscape:document-units="mm"
     showguides="true"
     inkscape:zoom="1"
     inkscape:cx="314"
     inkscape:cy="654.5"
     inkscape:window-width="1920"
     inkscape:window-height="1009"
     inkscape:window-x="1912"
     inkscape:window-y="-8"
     inkscape:window-maximized="1"
     inkscape:current-layer="layer1"><sodipodi:guide
       position="-40.704182,105.41739"
       orientation="0,-1"
       id="guide51"
       inkscape:locked="false" /><sodipodi:guide
       position="-40.175015,107.55955"
       orientation="1,0"
       id="guide52"
       inkscape:locked="false" /><sodipodi:guide
       position="115.94625,167.53253"
       orientation="1,0"
       id="guide129"
       inkscape:locked="false" /><sodipodi:guide
       position="5.3168291,162.41773"
       orientation="0,-1"
       id="guide131"
       inkscape:locked="false" /><sodipodi:guide
       position="16.368721,178.77096"
       orientation="1,0"
       id="guide132"
       inkscape:locked="false" /><sodipodi:guide
       position="12.063724,187.29045"
       orientation="0,-1"
       id="guide138"
       inkscape:locked="false" /><inkscape:page
       x="0"
       y="0"
       width="76.506859"
       height="77.059799"
       id="page2"
       margin="0"
       bleed="0" /></sodipodi:namedview><defs
     id="defs1"><color-profile
       name="Agfa-:-Swop-Standard"
       xlink:href="file:///C:/WINDOWS/system32/spool/drivers/color/RSWOP.icm"
       id="color-profile2" /><linearGradient
       id="swatch129"
       inkscape:swatch="solid"><stop
         style="stop-color:#013960;stop-opacity:1;"
         offset="0"
         id="stop129" /></linearGradient><linearGradient
       id="swatch128"
       inkscape:swatch="solid"><stop
         style="stop-color:#ffff00;stop-opacity:1;"
         offset="0"
         id="stop128" /></linearGradient><linearGradient
       id="swatch127"
       inkscape:swatch="solid"><stop
         style="stop-color:#ff3500;stop-opacity:1;"
         offset="0"
         id="stop127" /></linearGradient><linearGradient
       inkscape:collect="always"
       xlink:href="#swatch129"
       id="linearGradient129"
       x1="-145.90103"
       y1="443.03281"
       x2="126.41693"
       y2="443.03281"
       gradientUnits="userSpaceOnUse"
       gradientTransform="matrix(0.01975821,0,0,0.94858206,-137.11461,-111.71122)" /></defs><g
     inkscape:label="Capa 1"
     inkscape:groupmode="layer"
     id="layer1"
     transform="matrix(0.27,0,0,0.27,39.149122,-44.776341)"><path
       id="rect127"
       style="fill:none;fill-opacity:1;fill-rule:nonzero;stroke:url(#linearGradient129);stroke-width:10;stroke-linecap:butt;stroke-dasharray:none;stroke-opacity:1;paint-order:stroke fill markers"
       d="m -72.352295,170.83828 c -37.474925,0 -67.644455,30.16953 -67.644455,67.64445 v 140.11778 67.32673 h 61.020302 c 2.178781,0.20989 4.388517,0.31772 6.624153,0.31772 H 65.717562 c 37.474918,0 67.644448,-30.16953 67.644448,-67.64445 v -96.48756 -43.63022 c 0,-0.0116 1e-5,-0.0228 0,-0.0344 v -67.61 H 65.769239 65.717562 21.174391 Z"
       inkscape:export-filename="rect128.png"
       inkscape:export-xdpi="1200"
       inkscape:export-ydpi="1200" /><path
       id="rect71-6-0-6"
       style="display:inline;fill:#013960;fill-opacity:1;fill-rule:nonzero;stroke:none;stroke-width:0.727869;stroke-linecap:butt;stroke-dasharray:none;stroke-opacity:1;paint-order:stroke fill markers"
       d="m -67.404925,194.90565 c -0.05444,0 -0.107182,-5.1e-4 -0.160771,0.004 -25.544791,0.37177 -46.175964,20.72937 -46.862874,46.19299 -0.0106,0.086 -0.0211,0.17293 -0.0211,0.26221 v 34.73805 c 0,0.0811 0.006,0.16467 0.0172,0.24307 -0.0106,0.39595 -0.0172,0.79273 -0.0172,1.19047 8.6e-4,23.18791 17.179033,42.98203 40.030098,46.92029 0.09038,0.0151 0.18062,0.0249 0.275608,0.0249 h 29.135938 c 0.894144,0 1.615367,-0.71931 1.615367,-1.61345 v -28.65554 c 0,-0.89415 -0.721223,-1.61346 -1.615367,-1.61346 h -14.567012 c -13.058189,-2.1507 -22.692499,-13.04027 -22.990269,-26.20378 v -9.25582 c 0,-0.0215 7.3e-4,-0.0439 0,-0.0651 v -2.72163 c 7.3e-4,-0.0604 0,-0.12113 0,-0.18182 9.4e-4,-14.48187 11.212165,-26.34605 25.428631,-27.3866 h 0.715814 3.381936 0.09952 c 0.01722,0.001 0.0334,0.003 0.04976,0.006 0.0065,-10e-4 0.0088,-0.003 0.01531,-0.006 H 105.3034 c 1.38994,0 2.50726,-1.13687 2.50726,-2.54937 v -26.77987 c 0,-1.41241 -1.11732,-2.54937 -2.50726,-2.54937 z m 11.512361,39.3583 c -6.742671,4.4e-4 -12.207488,5.37418 -12.207122,12.00233 0.002,6.62652 5.466086,11.99616 12.207122,11.99659 4.291402,6.1e-4 8.269037,-2.21331 10.475004,-5.83179 h 13.516257 v 86.42405 h -13.755499 c -2.251696,-3.40579 -6.103693,-5.4599 -10.235762,-5.46047 -6.74265,4.4e-4 -12.207488,5.37229 -12.207122,12.00041 -3.66e-4,6.62814 5.464451,12.0019 12.207122,12.00233 4.448259,2.8e-4 8.545524,-2.37765 10.693194,-6.20691 h 23.089794 c 1.412447,0 2.549371,-1.13693 2.549371,-2.54937 v -7.23662 -91.52279 -7.23661 c 0,-0.26482 -0.04252,-0.52196 -0.116751,-0.76175 -0.09899,-0.31973 -0.257593,-0.60962 -0.465087,-0.86127 -0.155587,-0.18874 -0.336328,-0.35661 -0.539732,-0.4938 -0.338979,-0.22864 -0.73982,-0.37578 -1.169419,-0.41915 -0.08586,-0.008 -0.170193,-0.0134 -0.258382,-0.0134 h -7.246184 -16.0618 c -2.205966,-3.61848 -6.183601,-5.83238 -10.475004,-5.83178 z m 140.984788,0 c -4.13125,-3.2e-4 -7.98118,2.0524 -10.233844,5.45665 H 0.93811368 -6.2985003 c -1.412448,0 -2.549371,1.13692 -2.549371,2.54937 v 7.24235 114.29487 H -87.928127 c -2.20596,-3.61848 -6.18168,-5.83239 -10.47309,-5.83178 -6.742673,4.3e-4 -12.209393,5.37227 -12.209033,12.00042 -3.6e-4,6.62814 5.46636,12.00189 12.209033,12.00233 4.29141,6e-4 8.26713,-2.2133 10.47309,-5.83178 H 0.93811368 c 1.41244802,0 2.54937102,-1.13691 2.54937102,-2.54937 v -7.24045 c 0,-0.002 2.1e-5,-0.005 0,-0.008 V 252.05978 H 74.404775 c 2.148059,3.8264 6.241579,6.20273 10.687449,6.20309 6.74263,0.002 12.21091,-5.3685 12.21287,-11.99659 3.6e-4,-6.62972 -5.4686,-12.00415 -12.21287,-12.00233 z m -37.233823,26.92916 c -4.291401,-6e-4 -8.267124,2.2133 -10.473091,5.83178 H 24.006855 16.77024 c -1.412449,0 -2.54937,1.13691 -2.54937,2.54937 v 7.24044 c 0,0.002 -2.1e-5,0.005 0,0.008 v 89.04423 c -0.02711,0.14913 -0.04019,0.30403 -0.04019,0.46126 v 7.23662 c 0,1.33795 1.019212,2.4246 2.327353,2.53597 0.07295,0.006 0.14743,0.0134 0.222018,0.0134 0.01291,2.1e-4 0.02641,0 0.04019,0 h 7.236615 13.378455 c 2.205967,3.61848 6.18169,5.83238 10.473091,5.83178 6.74265,-4.4e-4 12.209401,-5.37421 12.209035,-12.00233 -0.0019,-6.62653 -5.467998,-11.99616 -12.209035,-11.99659 -4.291401,-6e-4 -8.267124,2.2133 -10.473091,5.83178 H 26.556226 V 279.36441 H 37.38531 c 2.205967,3.61848 6.18169,5.83239 10.473091,5.83179 6.742673,-4.2e-4 12.209401,-5.37228 12.209035,-12.00042 3.66e-4,-6.62814 -5.466362,-12.0019 -12.209035,-12.00233 z m 19.631302,31.40205 -29.13211,0.002 c -0.894145,0 -1.615367,0.72122 -1.615367,1.61537 v 28.65362 c 0,0.89415 0.721222,1.61537 1.615367,1.61537 h 14.591893 c 13.03627,2.15249 22.641541,13.2718 22.961562,26.41814 v 9.03955 c 0,0.0215 0.0057,0.0402 0.0057,0.0612 v 0.69285 2.03452 c -7.1e-4,0.0603 -0.0057,0.12134 -0.0057,0.18182 -9.25e-4,14.4013 -11.085547,26.22536 -25.18939,27.38086 H -111.89834 c -1.41245,0 -2.54937,1.13692 -2.54937,2.54937 v 26.7837 c 0,1.41246 1.13692,2.54937 2.54937,2.54937 H 59.738238 c 0.160538,10e-4 0.319475,0.006 0.4804,0.006 v -0.006 h 0.495711 c 0.05488,0 0.110589,4.3e-4 0.164599,-0.004 25.582256,-0.34343 46.231862,-20.70222 46.899232,-46.20064 0.0107,-0.0834 0.0172,-0.16791 0.0172,-0.25455 v -1.00482 -0.0172 -0.006 -33.716 c 0,-0.0334 0.002,-0.0668 0,-0.0995 0.0129,-0.45062 0.0172,-0.90216 0.0172,-1.35507 -8.6e-4,-23.12937 -17.108476,-42.85095 -39.873151,-46.85904 -0.141816,-0.0405 -0.294555,-0.0612 -0.449776,-0.0612 z"
       inkscape:export-filename="rect71-6-0-6.svg"
       inkscape:export-xdpi="1200"
       inkscape:export-ydpi="1200" /></g></svg>
